<?xml version="1.0" encoding="UTF-8" standalone="no"?>
<svg
   xmlns:dc="http://purl.org/dc/elements/1.1/"
   xmlns:cc="http://creativecommons.org/ns#"
   xmlns:rdf="http://www.w3.org/1999/02/22-rdf-syntax-ns#"
   xmlns:svg="http://www.w3.org/2000/svg"
   xmlns="http://www.w3.org/2000/svg"
   viewBox="0 0 2666.6667 2666.6667"
   height="2666.6667"
   width="2666.6667"
   xml:space="preserve"
   id="svg2"
   version="1.1"><metadata
     id="metadata8"><rdf:RDF><cc:Work
         rdf:about=""><dc:format>image/svg+xml</dc:format><dc:type
           rdf:resource="http://purl.org/dc/dcmitype/StillImage" /></cc:Work></rdf:RDF></metadata><defs
     id="defs6"><clipPath
       id="clipPath20"
       clipPathUnits="userSpaceOnUse"><path
         id="path18"
         d="M 0,2000 H 2000 V 0 H 0 Z" /></clipPath><clipPath
       id="clipPath70"
       clipPathUnits="userSpaceOnUse"><path
         id="path68"
         d="M 935.996,992.54 H 1044.83 V 962.725 H 935.996 Z" /></clipPath></defs><g
     transform="matrix(1.3333333,0,0,-1.3333333,0,2666.6667)"
     id="g10"><path
       id="path12"
       style="fill:#2980b9;fill-opacity:1;fill-rule:nonzero;stroke:none"
       d="M 0.252,0 H 2000 V 2000 H 0.252 Z" /><g
       id="g14"><g
         clip-path="url(#clipPath20)"
         id="g16"><g
           transform="translate(2000.252,1000.001)"
           id="g22"><path
             id="path24"
             style="fill:#4297c6;fill-opacity:1;fill-rule:nonzero;stroke:none"
             d="m 0,0 c 0,-552.282 -447.725,-1000.001 -1000,-1000.001 -552.282,0 -1000,447.719 -1000,1000.001 0,552.282 447.718,999.999 1000,999.999 C -447.725,999.999 0,552.282 0,0" /></g><g
           transform="translate(576.7183,1236.7622)"
           id="g26"><path
             id="path28"
             style="fill:#e2c8b5;fill-opacity:1;fill-rule:nonzero;stroke:none"
             d="M 0,0 C 0,0 -42.987,-12.279 -26.576,-57.826 -10.158,-103.328 34.12,-164.756 63.568,-152.48 93.01,-140.195 25.012,-0.717 0,0" /></g><path
           id="path30"
           style="fill:#e2c8b5;fill-opacity:1;fill-rule:nonzero;stroke:none"
           d="M 1142.17,492.863 H 827.459 v 282.605 h 314.711 z" /><g
           transform="translate(1423.3672,1236.7622)"
           id="g32"><path
             id="path34"
             style="fill:#e2c8b5;fill-opacity:1;fill-rule:nonzero;stroke:none"
             d="M 0,0 C 0,0 42.991,-12.279 26.573,-57.826 10.165,-103.328 -34.119,-164.756 -63.562,-152.48 -93.014,-140.195 -25.005,-0.717 0,0" /></g><g
           transform="translate(1403.1064,1251.2612)"
           id="g36"><path
             id="path38"
             style="fill:#efd9c7;fill-opacity:1;fill-rule:nonzero;stroke:none"
             d="m 0,0 c 0,-295.008 -180.248,-534.16 -402.606,-534.16 -222.345,0 -402.6,239.152 -402.6,534.16 0,295.014 180.255,534.163 402.6,534.163 C -180.248,534.163 0,295.014 0,0" /></g><g
           transform="translate(851.4854,1173.9204)"
           id="g40"><path
             id="path42"
             style="fill:#3c2415;fill-opacity:1;fill-rule:nonzero;stroke:none"
             d="m 0,0 c 0,-20.021 -17.552,-36.26 -39.214,-36.26 -21.656,0 -39.214,16.239 -39.214,36.26 0,20.015 17.558,36.251 39.214,36.251 C -17.552,36.251 0,20.015 0,0" /></g><g
           transform="translate(1218.7969,1173.9204)"
           id="g44"><path
             id="path46"
             style="fill:#3c2415;fill-opacity:1;fill-rule:nonzero;stroke:none"
             d="m 0,0 c 0,-20.021 -17.552,-36.26 -39.207,-36.26 -21.663,0 -39.222,16.239 -39.222,36.26 0,20.015 17.559,36.251 39.222,36.251 C -17.552,36.251 0,20.015 0,0" /></g><g
           transform="translate(894.8174,1243.1411)"
           id="g48"><path
             id="path50"
             style="fill:#3c2415;fill-opacity:1;fill-rule:nonzero;stroke:none"
             d="M 0,0 C -0.804,-6.969 -7.574,-12.019 -15.11,-11.279 L -152.889,2.289 c -7.532,0.738 -12.996,6.993 -12.196,13.961 0.807,6.965 7.567,12.015 15.1,11.275 L -12.203,13.96 C -4.664,13.217 0.8,6.964 0,0" /></g><g
           transform="translate(1262.0039,1260.376)"
           id="g52"><path
             id="path54"
             style="fill:#3c2415;fill-opacity:1;fill-rule:nonzero;stroke:none"
             d="m 0,0 c 0.896,-6.959 -4.477,-13.275 -12.006,-14.108 l -137.572,-15.211 c -7.523,-0.828 -14.359,4.139 -15.257,11.097 -0.9,6.945 4.469,13.272 11.998,14.103 L -15.264,11.089 C -7.735,11.92 -0.897,6.945 0,0" /></g><g
           transform="translate(858.2876,908.8574)"
           id="g56"><path
             id="path58"
             style="fill:#f0f1f1;fill-opacity:1;fill-rule:nonzero;stroke:none"
             d="m 0,0 c 0,0 45.168,-38.29 135.942,-38.675 88.806,-0.374 148.49,32.69 148.49,32.69 0,0 -148.49,-39.039 -284.432,5.985" /></g><g
           transform="translate(1594.1006,498.6641)"
           id="g60"><path
             id="path62"
             style="fill:#e2c8b5;fill-opacity:1;fill-rule:nonzero;stroke:none"
             d="m 0,0 c -66.8,90.574 -449.785,195.57 -449.785,195.57 -61.631,-73.737 -119.287,-97.109 -159.169,-103.1 -39.879,5.991 -97.535,29.363 -159.17,103.1 0,0 -382.981,-104.996 -449.784,-195.57 -66.8,-90.578 -48.99,-617.595 -48.99,-617.595 H 48.989 c 0,0 17.817,527.017 -48.989,617.595" /></g><g
           id="g64"><g
             id="g66" /><g
             id="g78"><g
               style="opacity:0.19999701"
               id="g76"
               clip-path="url(#clipPath70)"><g
                 id="g74"
                 transform="translate(935.9961,992.54)"><path
                   id="path72"
                   style="fill:#000000;fill-opacity:1;fill-rule:nonzero;stroke:none"
                   d="M 0,0 H 108.837 C 108.837,0 52.663,-67.083 0,0" /></g></g></g></g><g
           transform="translate(600.3423,1192.3774)"
           id="g80"><path
             id="path82"
             style="fill:#3c2415;fill-opacity:1;fill-rule:nonzero;stroke:none"
             d="m 0,0 c 0,0 19.085,60.621 33.167,136.357 v 2.706 c 0,0 34.853,30.025 105.067,-10.547 70.218,-40.574 112.909,-49.336 112.909,-49.336 0,0 -54.099,31.483 -57.611,54.205 0,0 82.505,-67.852 142.188,-74.501 0,0 -38.619,18.508 -57.051,49.345 0,0 59.684,-46.756 114.099,-49.345 0,0 -28.086,7.96 -43.005,49.345 0,0 49.15,-43.82 114.979,-38.141 0,0 -38.619,17.043 -53.542,51.936 0,0 112.349,-47.336 174.374,-34.353 62.02,12.983 143.94,-12.792 143.94,-12.792 l 53.83,-98.646 c 0,0 -9.949,40.57 -12.87,55.177 -2.925,14.608 25.585,-72.047 23.293,-85.341 0,0 12.558,287.027 8.997,405.829 C 799.203,470.702 531.38,613.894 371.704,613.894 212.03,613.894 -2.441,424.206 -2.441,424.206 -2.441,424.206 -19.997,117.304 0,0" /></g><g
           transform="translate(1594.1006,498.6641)"
           id="g84"><path
             id="path86"
             style="fill:#231f20;fill-opacity:1;fill-rule:nonzero;stroke:none"
             d="m 0,0 c -53.793,72.941 -312.594,155.222 -411.347,184.497 l -3.171,0.83 c -202.306,-262.76 -389.165,-0.121 -389.248,0 C -900.373,156.784 -1163.604,73.628 -1217.908,0 c -32.958,-44.69 -45.318,-195.622 -49.386,-337.083 l 216.7,-22.992 v -257.52 h 897.187 v 242.374 l 203.693,0.459 C 47.368,-223.5 35.913,-48.689 0,0" /></g></g></g></g></svg>