<svg id="svg" version="1.1" xmlns="http://www.w3.org/2000/svg" xmlns:xlink="http://www.w3.org/1999/xlink" width="400" height="400" viewBox="0, 0, 400,400"><g id="svgg"><path id="path0" d="M98.354 67.296 C 98.437 67.527,100.975 70.338,102.901 72.333 C 103.742 73.204,105.951 75.586,107.809 77.626 C 109.668 79.667,111.543 81.692,111.976 82.126 C 112.410 82.561,113.953 84.229,115.405 85.833 C 116.858 87.438,118.697 89.425,119.492 90.250 C 120.286 91.075,122.127 93.063,123.581 94.667 C 125.035 96.271,127.288 98.708,128.587 100.083 C 129.886 101.458,131.758 103.483,132.747 104.583 C 133.736 105.683,135.196 107.258,135.990 108.083 C 136.785 108.908,139.037 111.339,140.996 113.485 C 142.954 115.631,144.832 117.656,145.170 117.985 C 145.507 118.314,147.313 120.266,149.183 122.323 C 151.053 124.380,152.926 126.405,153.345 126.823 C 153.765 127.241,155.293 128.896,156.743 130.500 C 158.192 132.104,160.065 134.129,160.904 135.000 C 161.743 135.871,163.951 138.253,165.809 140.293 C 167.668 142.333,169.543 144.358,169.976 144.793 C 170.410 145.228,171.953 146.896,173.405 148.500 C 174.858 150.104,176.697 152.092,177.493 152.917 C 178.289 153.742,180.165 155.767,181.664 157.417 C 183.162 159.067,185.413 161.504,186.666 162.833 C 187.920 164.162,189.792 166.188,190.827 167.333 C 191.862 168.479,193.361 170.092,194.156 170.917 C 194.952 171.742,196.790 173.729,198.240 175.333 C 199.691 176.938,201.527 178.925,202.322 179.750 C 203.116 180.575,204.992 182.600,206.491 184.250 C 207.989 185.900,209.901 187.963,210.740 188.833 C 211.578 189.704,213.735 192.029,215.534 194.000 C 217.332 195.971,219.336 198.141,219.985 198.821 C 220.635 199.502,221.167 200.154,221.167 200.268 C 221.167 200.383,224.073 203.617,227.625 207.454 C 235.122 215.554,240.384 221.241,246.321 227.665 C 248.652 230.187,251.397 233.150,252.420 234.250 C 253.443 235.350,255.319 237.375,256.588 238.750 C 267.050 250.084,268.399 251.500,268.743 251.500 C 268.987 251.500,269.628 250.925,270.740 249.708 C 271.640 248.723,273.175 247.092,274.150 246.083 C 275.125 245.075,277.301 242.750,278.984 240.917 C 280.668 239.083,282.845 236.758,283.822 235.750 C 284.798 234.742,287.419 231.946,289.645 229.538 C 291.871 227.130,294.048 224.805,294.483 224.372 C 294.918 223.938,296.723 222.008,298.494 220.083 C 300.265 218.158,302.510 215.758,303.485 214.750 C 304.459 213.742,307.066 210.967,309.278 208.583 C 311.490 206.200,314.089 203.425,315.055 202.417 L 316.810 200.583 316.435 200.167 C 313.331 196.715,310.636 193.777,309.405 192.500 C 308.565 191.629,306.692 189.604,305.242 188.000 C 303.792 186.396,301.956 184.408,301.162 183.583 C 300.367 182.758,298.494 180.733,297.000 179.083 C 295.505 177.433,294.012 175.819,293.683 175.496 C 293.353 175.173,291.511 173.185,289.590 171.079 C 287.668 168.973,285.448 166.575,284.655 165.750 C 283.862 164.925,282.024 162.938,280.572 161.333 C 279.119 159.729,277.590 158.075,277.174 157.656 C 276.757 157.238,274.887 155.213,273.016 153.156 C 271.146 151.100,269.340 149.147,269.003 148.819 C 268.666 148.490,266.787 146.465,264.829 144.319 C 262.870 142.172,260.618 139.742,259.824 138.917 C 259.030 138.092,257.228 136.142,255.820 134.583 C 254.412 133.025,252.890 131.378,252.438 130.924 C 251.985 130.469,250.075 128.407,248.193 126.340 C 246.310 124.274,244.119 121.908,243.323 121.083 C 242.526 120.258,240.690 118.271,239.241 116.667 C 237.793 115.063,236.264 113.408,235.845 112.990 C 235.426 112.571,233.553 110.546,231.683 108.490 C 229.813 106.433,228.007 104.481,227.670 104.152 C 227.332 103.823,225.454 101.798,223.496 99.652 C 221.537 97.506,219.286 95.075,218.493 94.250 C 217.700 93.425,215.899 91.475,214.490 89.917 C 213.080 88.358,211.574 86.728,211.141 86.293 C 210.709 85.858,208.834 83.833,206.976 81.793 C 205.117 79.753,202.910 77.371,202.071 76.500 C 201.231 75.629,199.359 73.604,197.909 72.000 C 196.460 70.396,194.927 68.737,194.503 68.314 L 193.731 67.545 183.074 67.440 C 161.056 67.222,98.288 67.116,98.354 67.296 M201.013 222.053 C 200.333 222.803,198.565 224.692,197.083 226.250 C 195.602 227.808,193.008 230.582,191.320 232.415 C 189.631 234.247,187.872 236.122,187.410 236.581 C 186.948 237.041,184.698 239.442,182.410 241.917 C 180.122 244.392,177.898 246.768,177.467 247.198 C 177.036 247.627,174.801 250.013,172.500 252.500 C 170.199 254.987,167.963 257.373,167.531 257.803 C 167.098 258.233,164.874 260.609,162.587 263.084 C 160.301 265.559,158.052 267.958,157.590 268.417 C 157.128 268.875,154.967 271.180,152.787 273.538 C 150.607 275.897,148.469 278.184,148.035 278.622 C 147.601 279.059,145.372 281.440,143.081 283.914 C 140.791 286.387,138.564 288.763,138.133 289.195 C 137.703 289.626,135.468 292.013,133.167 294.500 C 130.866 296.987,128.616 299.387,128.167 299.833 C 127.718 300.280,125.468 302.680,123.167 305.167 C 120.866 307.653,118.631 310.040,118.200 310.471 C 117.769 310.902,116.034 312.753,114.345 314.585 C 112.656 316.418,110.025 319.229,108.498 320.833 C 106.971 322.438,104.341 325.249,102.653 327.080 C 100.965 328.912,99.152 330.843,98.625 331.372 C 98.098 331.901,97.667 332.362,97.667 332.397 C 97.667 332.432,119.097 332.463,145.290 332.465 L 192.914 332.471 194.129 331.219 C 194.797 330.531,197.106 328.064,199.260 325.737 C 201.414 323.410,203.532 321.149,203.967 320.712 C 204.402 320.274,206.631 317.892,208.920 315.417 C 211.210 312.942,213.436 310.565,213.867 310.136 C 214.297 309.706,216.532 307.320,218.833 304.833 C 221.134 302.347,223.369 299.961,223.800 299.531 C 224.231 299.102,226.457 296.725,228.746 294.250 C 231.036 291.775,233.265 289.392,233.700 288.955 C 234.135 288.518,236.274 286.231,238.454 283.874 C 240.633 281.516,242.769 279.235,243.200 278.804 C 243.631 278.374,245.866 275.987,248.167 273.500 C 250.468 271.013,252.713 268.618,253.156 268.178 C 253.599 267.737,255.823 265.360,258.100 262.897 C 260.376 260.433,262.616 258.039,263.077 257.577 C 264.653 256.002,267.782 252.584,267.963 252.240 C 268.134 251.917,267.896 251.779,263.864 249.873 C 260.184 248.132,257.588 246.901,250.083 243.338 C 247.731 242.221,241.960 239.485,240.583 238.835 C 239.850 238.488,238.350 237.775,237.250 237.250 C 236.150 236.726,234.012 235.714,232.500 235.002 C 230.987 234.290,228.850 233.278,227.750 232.753 C 226.650 232.227,224.438 231.177,222.833 230.418 C 221.229 229.659,219.092 228.646,218.083 228.167 C 217.075 227.688,215.650 227.013,214.917 226.666 C 214.183 226.320,211.045 224.828,207.943 223.351 C 204.841 221.875,202.291 220.672,202.277 220.678 C 202.262 220.685,201.693 221.303,201.013 222.053 " stroke="none" fill="#d40a1a" fill-rule="evenodd"></path><path id="path1" d="M97.568 67.619 C 97.083 67.680,96.318 68.773,95.434 70.667 C 95.370 70.804,95.134 71.217,94.910 71.583 C 94.686 71.950,94.392 72.486,94.256 72.774 C 94.121 73.062,93.756 73.737,93.446 74.274 C 92.850 75.304,91.988 76.858,91.471 77.833 C 91.301 78.154,91.090 78.529,91.003 78.667 C 90.915 78.804,90.090 80.304,89.169 82.000 C 88.248 83.696,87.423 85.196,87.336 85.333 C 87.249 85.471,86.942 86.033,86.654 86.583 C 86.113 87.617,84.936 89.728,84.656 90.167 C 84.568 90.304,84.348 90.717,84.167 91.083 C 83.986 91.450,83.764 91.862,83.674 92.000 C 83.513 92.246,80.682 97.381,79.538 99.500 C 78.756 100.951,77.512 103.190,77.317 103.500 C 77.231 103.638,77.043 104.005,76.901 104.316 C 76.758 104.627,76.535 104.989,76.404 105.120 C 76.274 105.250,76.167 105.425,76.167 105.508 C 76.167 105.638,70.435 116.146,69.989 116.833 C 69.900 116.971,69.710 117.338,69.568 117.649 C 69.425 117.961,69.202 118.322,69.071 118.453 C 68.940 118.584,68.833 118.763,68.833 118.851 C 68.833 118.939,68.507 119.590,68.108 120.297 C 67.708 121.005,67.135 122.033,66.834 122.583 C 66.532 123.133,65.540 124.927,64.628 126.569 C 63.717 128.211,62.898 129.711,62.810 129.903 C 62.722 130.094,62.466 130.550,62.243 130.917 C 62.019 131.283,61.725 131.819,61.590 132.107 C 61.454 132.395,61.090 133.070,60.779 133.607 C 60.469 134.144,59.970 135.033,59.670 135.583 C 57.423 139.706,54.844 144.391,54.670 144.667 C 54.583 144.804,54.239 145.442,53.904 146.083 C 53.570 146.725,53.240 147.325,53.170 147.417 C 53.052 147.571,52.202 149.112,51.470 150.500 C 51.300 150.821,51.090 151.196,51.003 151.333 C 50.841 151.588,47.935 156.863,46.871 158.833 C 45.866 160.695,44.827 162.573,44.657 162.833 C 44.567 162.971,44.377 163.338,44.234 163.649 C 44.092 163.961,43.868 164.322,43.738 164.453 C 43.607 164.584,43.500 164.760,43.500 164.844 C 43.500 164.929,42.556 166.705,41.401 168.791 C 40.247 170.877,38.893 173.333,38.391 174.250 C 37.890 175.167,37.408 176.029,37.320 176.167 C 37.232 176.304,37.043 176.671,36.901 176.983 C 36.758 177.294,36.535 177.656,36.404 177.786 C 36.274 177.917,36.167 178.096,36.167 178.184 C 36.167 178.273,35.840 178.924,35.441 179.631 C 35.042 180.338,34.469 181.367,34.167 181.917 C 33.866 182.467,32.873 184.260,31.962 185.903 C 31.050 187.545,30.232 189.045,30.143 189.236 C 30.055 189.427,29.800 189.883,29.576 190.250 C 29.352 190.617,29.058 191.152,28.923 191.441 C 28.788 191.729,28.423 192.404,28.113 192.941 C 27.802 193.477,27.303 194.367,27.003 194.917 C 24.756 199.039,22.177 203.724,22.003 204.000 C 21.916 204.137,21.572 204.775,21.238 205.417 C 20.904 206.058,20.573 206.658,20.503 206.750 C 20.385 206.904,19.535 208.446,18.803 209.833 C 18.634 210.154,18.424 210.529,18.336 210.667 C 18.174 210.921,15.268 216.196,14.205 218.167 C 13.200 220.029,12.160 221.906,11.990 222.167 C 11.900 222.304,11.710 222.671,11.568 222.983 C 11.425 223.294,11.202 223.656,11.071 223.786 C 10.940 223.917,10.833 224.093,10.833 224.178 C 10.833 224.312,8.488 228.612,5.735 233.525 C 5.239 234.410,4.833 235.185,4.833 235.249 C 4.833 235.312,4.683 235.555,4.500 235.788 C 4.317 236.021,4.167 236.450,4.167 236.741 C 4.167 237.112,4.017 237.414,3.669 237.747 C 3.232 238.166,3.183 238.306,3.264 238.904 C 3.526 240.835,5.562 249.571,6.346 252.128 C 6.522 252.703,6.667 253.296,6.667 253.445 C 6.667 253.594,6.806 254.136,6.977 254.650 C 7.148 255.163,7.455 256.146,7.658 256.833 C 8.767 260.579,8.796 260.670,9.499 262.667 C 9.612 262.987,9.805 263.587,9.928 264.000 C 10.299 265.247,10.695 266.377,11.023 267.129 C 11.194 267.521,11.333 267.939,11.333 268.056 C 11.333 268.174,11.483 268.581,11.667 268.961 C 11.850 269.340,12.000 269.734,12.000 269.836 C 12.000 270.008,12.120 270.327,13.035 272.583 C 13.423 273.542,13.902 274.738,14.353 275.875 C 15.161 277.913,16.047 279.965,16.432 280.692 C 16.561 280.936,16.667 281.216,16.667 281.314 C 16.667 281.696,20.964 290.547,21.194 290.639 C 21.271 290.669,21.335 290.819,21.337 290.972 C 21.339 291.125,21.487 291.438,21.667 291.667 C 21.846 291.896,21.994 292.200,21.996 292.342 C 21.998 292.484,22.073 292.673,22.163 292.763 C 22.343 292.943,23.510 295.075,23.936 296.000 C 24.083 296.321,24.262 296.621,24.333 296.667 C 24.404 296.712,24.583 297.012,24.731 297.333 C 24.878 297.654,25.160 298.179,25.358 298.500 C 25.556 298.821,25.981 299.571,26.304 300.167 C 26.626 300.762,26.947 301.289,27.018 301.337 C 27.088 301.384,27.224 301.609,27.320 301.837 C 27.416 302.064,27.681 302.550,27.910 302.917 C 28.138 303.283,28.479 303.846,28.667 304.167 C 28.855 304.487,29.146 304.975,29.314 305.250 C 29.968 306.320,30.335 306.936,30.602 307.417 C 30.755 307.692,30.928 307.954,30.987 308.000 C 31.046 308.046,31.352 308.496,31.667 309.000 C 31.981 309.504,32.282 309.954,32.334 310.000 C 32.416 310.073,33.236 311.262,34.000 312.419 C 34.137 312.627,34.494 313.147,34.792 313.574 C 35.090 314.001,35.333 314.421,35.333 314.508 C 35.333 314.595,35.401 314.667,35.484 314.667 C 35.614 314.667,35.837 314.970,36.583 316.163 C 36.675 316.309,36.845 316.539,36.961 316.673 C 37.077 316.807,37.769 317.742,38.499 318.750 C 39.229 319.758,40.016 320.799,40.247 321.063 C 40.478 321.326,40.667 321.574,40.667 321.612 C 40.667 321.694,42.708 324.287,43.082 324.681 C 43.220 324.826,43.333 325.032,43.333 325.139 C 43.333 325.246,43.397 325.333,43.476 325.333 C 43.554 325.333,44.090 325.933,44.667 326.667 C 45.243 327.400,45.779 328.000,45.857 328.000 C 45.936 328.000,46.000 328.110,46.000 328.244 C 46.000 328.378,46.150 328.569,46.333 328.667 C 46.517 328.765,46.667 328.955,46.667 329.089 C 46.667 329.223,46.729 329.333,46.804 329.333 C 46.880 329.333,47.329 329.811,47.803 330.395 C 48.276 330.978,48.965 331.775,49.332 332.165 C 49.699 332.555,50.001 332.922,50.002 332.979 C 50.003 333.036,50.302 333.346,50.667 333.667 C 51.032 333.987,51.331 334.295,51.332 334.351 C 51.339 334.782,65.218 348.661,65.649 348.668 C 65.705 348.669,66.012 348.968,66.333 349.333 C 66.654 349.698,66.964 349.997,67.021 349.998 C 67.078 349.999,67.445 350.301,67.835 350.668 C 68.225 351.035,69.022 351.724,69.605 352.197 C 70.189 352.671,70.667 353.120,70.667 353.196 C 70.667 353.271,70.777 353.333,70.911 353.333 C 71.045 353.333,71.235 353.483,71.333 353.667 C 71.431 353.850,71.622 354.000,71.756 354.000 C 71.890 354.000,72.000 354.064,72.000 354.143 C 72.000 354.221,72.600 354.757,73.333 355.333 C 74.067 355.910,74.667 356.446,74.667 356.524 C 74.667 356.603,74.746 356.667,74.843 356.667 C 74.941 356.667,75.761 357.267,76.667 358.000 C 77.572 358.733,78.393 359.333,78.490 359.333 C 78.587 359.333,78.667 359.406,78.667 359.494 C 78.667 359.628,79.983 360.629,80.976 361.250 C 81.122 361.342,81.319 361.499,81.413 361.600 C 81.507 361.700,81.958 362.038,82.417 362.350 C 82.875 362.662,83.296 362.980,83.352 363.057 C 83.409 363.134,83.601 363.284,83.779 363.390 C 84.806 364.002,85.333 364.384,85.333 364.516 C 85.333 364.599,85.409 364.667,85.502 364.667 C 85.594 364.667,86.036 364.924,86.484 365.238 L 87.297 365.810 87.678 365.405 C 87.887 365.182,88.116 365.000,88.187 365.000 C 88.328 365.000,89.058 364.500,91.000 363.076 C 91.688 362.572,92.888 361.709,93.667 361.158 C 94.446 360.607,95.533 359.825,96.083 359.421 C 96.633 359.017,97.646 358.292,98.333 357.811 C 99.021 357.330,99.621 356.887,99.667 356.827 C 99.712 356.767,100.200 356.404,100.750 356.020 C 102.401 354.867,103.372 354.172,104.250 353.513 C 105.006 352.945,107.147 351.409,110.134 349.292 C 110.748 348.857,111.370 348.399,111.516 348.274 C 111.662 348.150,112.225 347.737,112.766 347.357 C 114.760 345.957,116.092 345.003,116.417 344.742 C 116.845 344.398,120.564 341.727,122.083 340.673 C 122.725 340.228,123.400 339.741,123.583 339.592 C 123.995 339.255,125.352 338.283,127.000 337.142 C 127.688 336.666,128.289 336.219,128.337 336.148 C 128.385 336.077,128.905 335.696,129.492 335.301 C 131.240 334.126,131.407 334.167,124.774 334.167 C 121.006 334.167,118.816 334.106,118.750 334.000 C 118.683 333.892,114.757 333.833,107.516 333.833 C 97.009 333.833,96.370 333.817,96.113 333.533 C 95.753 333.135,96.340 332.572,97.042 332.644 C 97.294 332.670,97.500 332.614,97.500 332.520 C 97.500 332.425,97.901 331.951,98.391 331.465 C 98.881 330.980,100.691 329.046,102.414 327.167 C 104.136 325.287,106.345 322.925,107.322 321.917 C 108.299 320.908,110.550 318.508,112.323 316.583 C 114.096 314.658,116.345 312.258,117.322 311.250 C 118.298 310.242,120.510 307.879,122.237 306.000 C 123.965 304.121,126.105 301.833,126.993 300.917 C 127.880 300.000,130.093 297.637,131.910 295.667 C 133.727 293.696,136.013 291.258,136.989 290.250 C 137.965 289.242,140.585 286.446,142.811 284.038 C 145.038 281.630,147.215 279.305,147.650 278.872 C 148.085 278.438,149.890 276.508,151.660 274.583 C 153.431 272.658,155.680 270.258,156.657 269.250 C 157.634 268.242,159.848 265.879,161.575 264.000 C 163.303 262.121,165.550 259.721,166.570 258.667 C 167.589 257.612,169.801 255.250,171.485 253.417 C 173.168 251.583,175.345 249.258,176.322 248.250 C 177.298 247.242,179.928 244.437,182.165 242.016 C 184.402 239.596,186.618 237.234,187.089 236.766 C 187.559 236.299,189.354 234.379,191.078 232.500 C 192.802 230.621,195.011 228.258,195.987 227.250 C 196.964 226.242,198.771 224.329,200.003 223.000 C 201.235 221.671,202.665 220.171,203.181 219.667 C 203.696 219.162,205.964 216.751,208.220 214.307 C 210.475 211.863,212.688 209.501,213.137 209.057 C 214.291 207.915,221.163 200.436,221.165 200.321 C 221.167 200.222,217.074 195.721,216.223 194.887 C 215.959 194.628,214.172 192.692,212.251 190.583 C 210.329 188.475,208.414 186.405,207.994 185.983 C 207.575 185.561,205.736 183.575,203.907 181.570 C 202.079 179.564,200.246 177.583,199.833 177.167 C 199.421 176.751,197.513 174.687,195.593 172.580 C 193.674 170.474,191.831 168.487,191.498 168.167 C 191.165 167.846,189.324 165.858,187.406 163.750 C 185.488 161.642,183.580 159.578,183.167 159.163 C 182.755 158.749,180.947 156.799,179.152 154.830 C 177.356 152.861,175.520 150.875,175.072 150.417 C 174.624 149.958,172.717 147.896,170.833 145.833 C 168.950 143.771,167.042 141.708,166.594 141.250 C 166.146 140.792,164.303 138.804,162.500 136.833 C 160.697 134.862,158.854 132.875,158.406 132.417 C 157.958 131.958,156.050 129.896,154.167 127.833 C 152.283 125.771,150.375 123.708,149.927 123.250 C 149.478 122.792,147.642 120.806,145.847 118.838 C 144.052 116.869,142.245 114.919,141.832 114.504 C 141.418 114.089,139.511 112.025,137.593 109.917 C 135.674 107.808,133.833 105.821,133.501 105.500 C 133.169 105.179,131.326 103.193,129.407 101.086 C 127.487 98.979,125.579 96.916,125.167 96.500 C 124.754 96.084,122.846 94.021,120.927 91.914 C 119.007 89.807,117.165 87.821,116.832 87.500 C 116.500 87.179,114.659 85.192,112.741 83.083 C 110.823 80.975,108.915 78.911,108.502 78.496 C 108.088 78.081,106.593 76.469,105.179 74.913 C 101.811 71.207,98.289 67.493,98.174 67.527 C 98.124 67.541,97.852 67.583,97.568 67.619 " stroke="none" fill="#2c2c2c" fill-rule="evenodd"></path><path id="path2" d="M176.000 0.268 C 175.221 0.395,173.900 0.567,173.065 0.651 C 172.230 0.735,170.880 0.919,170.065 1.059 C 169.250 1.200,167.608 1.475,166.417 1.670 C 163.044 2.222,158.604 3.091,156.500 3.612 C 155.904 3.759,155.065 3.939,154.635 4.012 C 154.205 4.084,153.455 4.255,152.968 4.391 C 150.745 5.012,149.490 5.333,149.295 5.331 C 149.179 5.330,148.596 5.474,148.000 5.651 C 147.404 5.829,146.317 6.139,145.583 6.340 C 143.206 6.993,134.628 9.713,133.000 10.331 C 132.587 10.488,131.987 10.710,131.667 10.824 C 131.346 10.939,130.596 11.216,130.000 11.441 C 129.404 11.666,128.720 11.913,128.479 11.991 C 128.238 12.068,127.788 12.245,127.479 12.384 C 127.170 12.523,126.392 12.839,125.750 13.086 C 125.108 13.332,124.358 13.629,124.083 13.746 C 122.039 14.611,121.343 14.904,120.833 15.114 C 120.028 15.446,119.444 15.707,115.833 17.355 C 114.146 18.125,105.866 22.295,104.333 23.146 C 103.829 23.426,103.154 23.796,102.833 23.968 C 102.104 24.359,99.337 25.946,99.000 26.166 C 98.862 26.256,98.450 26.491,98.083 26.687 C 97.717 26.884,97.379 27.091,97.333 27.147 C 97.287 27.204,96.912 27.432,96.500 27.655 C 95.746 28.063,95.545 28.188,94.167 29.110 C 93.754 29.386,93.098 29.788,92.708 30.003 C 92.319 30.219,92.000 30.456,92.000 30.531 C 92.000 30.605,91.919 30.667,91.820 30.667 C 91.655 30.667,86.192 34.248,86.000 34.483 C 85.954 34.539,85.579 34.809,85.167 35.084 C 84.083 35.806,81.793 37.436,81.498 37.695 C 81.360 37.817,80.723 38.284,80.082 38.732 C 79.441 39.181,78.842 39.635,78.750 39.742 C 78.658 39.848,78.133 40.265,77.583 40.668 C 76.214 41.672,72.474 44.649,72.167 44.980 C 72.029 45.129,71.129 45.899,70.167 46.691 C 69.204 47.484,68.117 48.413,67.750 48.755 C 67.383 49.097,66.071 50.283,64.833 51.389 C 61.933 53.981,53.981 61.933,51.389 64.833 C 50.283 66.071,49.097 67.383,48.755 67.750 C 48.413 68.117,47.484 69.204,46.691 70.167 C 45.899 71.129,45.129 72.029,44.980 72.167 C 44.649 72.474,41.672 76.214,40.668 77.583 C 40.265 78.133,39.848 78.658,39.742 78.750 C 39.635 78.842,39.181 79.441,38.732 80.082 C 38.284 80.723,37.817 81.360,37.695 81.498 C 37.436 81.793,35.806 84.083,35.084 85.167 C 34.809 85.579,34.539 85.954,34.483 86.000 C 34.248 86.192,30.667 91.655,30.667 91.820 C 30.667 91.919,30.605 92.000,30.531 92.000 C 30.456 92.000,30.219 92.319,30.003 92.708 C 29.788 93.098,29.386 93.754,29.110 94.167 C 28.188 95.545,28.063 95.746,27.655 96.500 C 27.432 96.912,27.204 97.287,27.147 97.333 C 27.091 97.379,26.884 97.717,26.687 98.083 C 26.491 98.450,26.256 98.862,26.166 99.000 C 25.946 99.337,24.359 102.104,23.968 102.833 C 23.796 103.154,23.426 103.829,23.146 104.333 C 22.295 105.866,18.125 114.146,17.355 115.833 C 15.707 119.444,15.446 120.028,15.114 120.833 C 14.904 121.343,14.611 122.039,13.746 124.083 C 13.629 124.358,13.332 125.108,13.085 125.750 C 12.839 126.392,12.493 127.235,12.318 127.623 C 12.143 128.012,12.000 128.385,12.000 128.453 C 12.000 128.567,11.812 129.077,11.003 131.167 C 10.633 132.120,10.549 132.366,9.154 136.583 C 8.517 138.508,7.876 140.421,7.729 140.833 C 7.582 141.246,7.403 141.846,7.332 142.167 C 7.260 142.487,7.091 143.087,6.955 143.500 C 6.819 143.912,6.543 144.850,6.341 145.583 C 6.139 146.317,5.829 147.404,5.651 148.000 C 5.474 148.596,5.330 149.179,5.331 149.295 C 5.333 149.490,5.012 150.745,4.391 152.968 C 4.255 153.455,4.084 154.205,4.012 154.635 C 3.939 155.065,3.759 155.904,3.612 156.500 C 2.627 160.480,1.290 168.178,0.341 175.333 C 0.010 177.829,-0.002 178.662,-0.002 200.000 C -0.002 224.955,-0.091 223.174,1.668 233.500 C 1.848 234.554,2.042 235.792,2.100 236.250 C 2.177 236.863,2.340 237.226,2.718 237.625 L 3.232 238.167 3.699 237.719 C 4.019 237.412,4.167 237.104,4.167 236.741 C 4.167 236.450,4.317 236.021,4.500 235.788 C 4.683 235.555,4.833 235.312,4.833 235.249 C 4.833 235.185,5.239 234.410,5.735 233.525 C 8.488 228.612,10.833 224.312,10.833 224.178 C 10.833 224.093,10.940 223.917,11.071 223.786 C 11.202 223.656,11.425 223.294,11.568 222.983 C 11.710 222.671,11.900 222.304,11.990 222.167 C 12.160 221.906,13.200 220.029,14.205 218.167 C 15.268 216.196,18.174 210.921,18.336 210.667 C 18.424 210.529,18.634 210.154,18.803 209.833 C 19.535 208.446,20.385 206.904,20.503 206.750 C 20.573 206.658,20.904 206.058,21.238 205.417 C 21.572 204.775,21.916 204.137,22.003 204.000 C 22.177 203.724,24.756 199.039,27.003 194.917 C 27.303 194.367,27.802 193.477,28.113 192.941 C 28.423 192.404,28.788 191.729,28.923 191.441 C 29.058 191.152,29.352 190.617,29.576 190.250 C 29.800 189.883,30.055 189.427,30.143 189.236 C 30.232 189.045,31.050 187.545,31.962 185.903 C 32.873 184.260,33.866 182.467,34.167 181.917 C 34.469 181.367,35.042 180.338,35.441 179.631 C 35.840 178.924,36.167 178.273,36.167 178.184 C 36.167 178.096,36.274 177.917,36.404 177.786 C 36.535 177.656,36.758 177.294,36.901 176.983 C 37.043 176.671,37.232 176.304,37.320 176.167 C 37.408 176.029,37.890 175.167,38.391 174.250 C 38.893 173.333,40.247 170.877,41.401 168.791 C 42.556 166.705,43.500 164.929,43.500 164.844 C 43.500 164.760,43.607 164.584,43.738 164.453 C 43.868 164.322,44.092 163.961,44.234 163.649 C 44.377 163.338,44.567 162.971,44.657 162.833 C 44.827 162.573,45.866 160.695,46.871 158.833 C 47.935 156.863,50.841 151.588,51.003 151.333 C 51.090 151.196,51.300 150.821,51.470 150.500 C 52.202 149.112,53.052 147.571,53.170 147.417 C 53.240 147.325,53.570 146.725,53.904 146.083 C 54.239 145.442,54.583 144.804,54.670 144.667 C 54.844 144.391,57.423 139.706,59.670 135.583 C 59.970 135.033,60.469 134.144,60.779 133.607 C 61.090 133.070,61.454 132.395,61.590 132.107 C 61.725 131.819,62.019 131.283,62.243 130.917 C 62.466 130.550,62.722 130.094,62.810 129.903 C 62.898 129.711,63.717 128.211,64.628 126.569 C 65.540 124.927,66.532 123.133,66.834 122.583 C 67.135 122.033,67.708 121.005,68.108 120.297 C 68.507 119.590,68.833 118.939,68.833 118.851 C 68.833 118.763,68.940 118.584,69.071 118.453 C 69.202 118.322,69.425 117.961,69.568 117.649 C 69.710 117.338,69.900 116.971,69.989 116.833 C 70.435 116.146,76.167 105.638,76.167 105.508 C 76.167 105.425,76.274 105.250,76.404 105.120 C 76.535 104.989,76.758 104.627,76.901 104.316 C 77.043 104.005,77.231 103.638,77.317 103.500 C 77.512 103.190,78.756 100.951,79.538 99.500 C 80.682 97.381,83.513 92.246,83.674 92.000 C 83.764 91.862,83.986 91.450,84.167 91.083 C 84.348 90.717,84.568 90.304,84.656 90.167 C 84.936 89.728,86.113 87.617,86.654 86.583 C 86.942 86.033,87.249 85.471,87.336 85.333 C 87.423 85.196,88.248 83.696,89.169 82.000 C 90.090 80.304,90.915 78.804,91.003 78.667 C 91.090 78.529,91.301 78.154,91.471 77.833 C 91.988 76.858,92.850 75.304,93.446 74.274 C 93.756 73.737,94.121 73.062,94.256 72.774 C 94.392 72.486,94.686 71.950,94.910 71.583 C 95.134 71.217,95.370 70.804,95.434 70.667 C 96.327 68.753,97.089 67.667,97.537 67.667 C 97.813 67.667,98.052 67.558,98.111 67.405 C 98.202 67.169,102.693 67.156,145.979 67.265 L 193.747 67.386 194.582 68.257 C 195.944 69.679,196.795 70.599,199.514 73.584 C 200.933 75.143,202.524 76.868,203.049 77.418 C 203.575 77.967,204.290 78.717,204.640 79.083 C 204.989 79.450,206.431 81.021,207.846 82.574 C 209.260 84.128,210.773 85.755,211.208 86.191 C 211.644 86.627,212.000 87.021,212.000 87.066 C 212.000 87.111,212.359 87.509,212.799 87.949 C 213.238 88.390,214.777 90.045,216.218 91.628 C 217.660 93.211,219.119 94.797,219.461 95.152 C 220.951 96.700,222.084 97.920,224.423 100.497 C 225.795 102.008,227.310 103.632,227.792 104.107 C 228.273 104.582,228.667 105.015,228.667 105.069 C 228.667 105.123,228.919 105.411,229.227 105.709 C 229.534 106.006,231.058 107.642,232.611 109.343 C 234.165 111.044,235.732 112.740,236.093 113.112 C 237.000 114.045,237.853 114.969,240.843 118.250 C 242.263 119.808,243.856 121.533,244.382 122.083 C 246.044 123.819,246.383 124.184,249.086 127.149 C 250.540 128.743,252.091 130.408,252.532 130.849 C 252.973 131.290,253.333 131.688,253.333 131.733 C 253.333 131.778,253.693 132.175,254.132 132.616 C 254.571 133.056,256.110 134.712,257.552 136.295 C 258.993 137.878,260.453 139.463,260.795 139.817 C 261.986 141.050,263.116 142.268,265.675 145.077 C 267.091 146.631,268.645 148.319,269.128 148.827 C 269.611 149.335,270.255 150.012,270.560 150.333 C 270.864 150.654,272.415 152.342,274.007 154.083 C 275.599 155.825,277.149 157.484,277.451 157.770 C 277.753 158.056,278.000 158.333,278.000 158.385 C 278.000 158.438,278.362 158.842,278.804 159.282 C 279.246 159.723,280.786 161.380,282.227 162.964 C 283.667 164.549,285.124 166.131,285.464 166.480 C 286.128 167.159,288.184 169.379,291.506 173.000 C 292.641 174.237,293.817 175.484,294.118 175.770 C 294.420 176.056,294.667 176.333,294.667 176.385 C 294.667 176.438,295.026 176.842,295.465 177.282 C 295.905 177.723,297.444 179.378,298.885 180.961 C 300.327 182.544,301.786 184.129,302.128 184.484 C 303.334 185.732,304.459 186.946,307.008 189.746 C 308.424 191.302,309.979 192.990,310.463 193.496 C 312.042 195.148,312.389 195.522,314.625 197.985 C 317.173 200.792,317.043 200.484,316.083 201.443 C 315.671 201.855,315.333 202.231,315.333 202.278 C 315.333 202.324,314.938 202.749,314.454 203.223 C 313.970 203.696,312.120 205.658,310.344 207.583 C 308.567 209.508,306.713 211.480,306.223 211.965 C 305.734 212.451,305.333 212.888,305.333 212.938 C 305.333 212.988,304.940 213.417,304.458 213.892 C 303.977 214.367,302.614 215.805,301.428 217.086 C 298.319 220.449,295.517 223.448,294.762 224.221 C 294.402 224.590,292.644 226.473,290.854 228.404 C 287.710 231.799,287.116 232.431,285.050 234.583 C 284.523 235.133,282.671 237.121,280.935 239.000 C 279.200 240.879,277.380 242.814,276.890 243.299 C 276.401 243.784,276.000 244.218,276.000 244.263 C 276.000 244.308,275.494 244.852,274.875 245.473 C 274.256 246.093,272.705 247.741,271.427 249.134 C 270.081 250.601,268.978 251.667,268.804 251.667 C 268.639 251.667,268.318 251.948,268.090 252.292 C 267.862 252.635,266.042 254.658,264.046 256.787 C 256.409 264.931,250.076 271.691,245.500 276.580 C 242.887 279.372,238.463 284.099,235.667 287.083 C 232.871 290.068,228.446 294.794,225.833 297.586 C 223.221 300.378,218.796 305.103,216.000 308.087 C 204.906 319.926,201.008 324.096,197.129 328.275 L 193.083 332.633 144.817 332.630 C 98.395 332.627,96.536 332.639,96.196 332.930 C 95.867 333.212,95.861 333.255,96.113 333.533 C 96.370 333.817,97.009 333.833,107.516 333.833 C 114.757 333.833,118.683 333.892,118.750 334.000 C 118.816 334.106,121.006 334.167,124.774 334.167 C 131.407 334.167,131.240 334.126,129.492 335.301 C 128.905 335.696,128.385 336.077,128.337 336.148 C 128.289 336.219,127.688 336.666,127.000 337.142 C 125.352 338.283,123.995 339.255,123.583 339.592 C 123.400 339.741,122.725 340.228,122.083 340.673 C 120.564 341.727,116.845 344.398,116.417 344.742 C 116.092 345.003,114.760 345.957,112.766 347.357 C 112.225 347.737,111.662 348.150,111.516 348.274 C 111.370 348.399,110.748 348.857,110.134 349.292 C 107.147 351.409,105.006 352.945,104.250 353.513 C 103.372 354.172,102.401 354.867,100.750 356.020 C 100.200 356.404,99.712 356.767,99.667 356.827 C 99.621 356.887,99.021 357.330,98.333 357.811 C 97.646 358.292,96.633 359.017,96.083 359.421 C 95.533 359.825,94.446 360.607,93.667 361.158 C 92.888 361.709,91.688 362.572,91.000 363.076 C 89.065 364.496,88.328 365.000,88.189 365.000 C 88.120 365.000,87.847 365.224,87.584 365.499 L 87.106 365.998 87.485 366.401 C 87.933 366.877,91.566 369.333,91.823 369.333 C 91.920 369.333,92.000 369.395,92.000 369.469 C 92.000 369.544,92.319 369.781,92.708 369.997 C 93.098 370.212,93.754 370.614,94.167 370.890 C 95.545 371.812,95.746 371.937,96.500 372.345 C 96.912 372.568,97.287 372.796,97.333 372.853 C 97.379 372.909,97.717 373.116,98.083 373.313 C 98.450 373.509,98.862 373.744,99.000 373.834 C 99.337 374.054,102.104 375.641,102.833 376.032 C 103.154 376.204,103.829 376.574,104.333 376.854 C 105.866 377.705,114.146 381.875,115.833 382.645 C 119.444 384.293,120.028 384.554,120.833 384.886 C 121.343 385.096,122.039 385.389,124.083 386.254 C 124.358 386.371,125.108 386.668,125.750 386.915 C 126.392 387.161,127.235 387.507,127.623 387.682 C 128.012 387.857,128.385 388.000,128.453 388.000 C 128.567 388.000,129.077 388.188,131.167 388.997 C 132.120 389.367,132.366 389.451,136.583 390.846 C 138.508 391.483,140.421 392.124,140.833 392.271 C 141.246 392.418,141.846 392.597,142.167 392.668 C 142.487 392.740,143.087 392.909,143.500 393.045 C 143.912 393.181,144.850 393.457,145.583 393.659 C 146.317 393.861,147.404 394.171,148.000 394.349 C 148.596 394.526,149.179 394.670,149.295 394.669 C 149.490 394.667,150.745 394.988,152.968 395.609 C 153.455 395.745,154.205 395.916,154.635 395.988 C 155.065 396.061,155.904 396.241,156.500 396.388 C 160.480 397.373,168.178 398.710,175.333 399.659 C 179.344 400.191,220.656 400.191,224.667 399.659 C 231.822 398.710,239.520 397.373,243.500 396.388 C 244.096 396.241,244.935 396.061,245.365 395.988 C 245.795 395.916,246.545 395.745,247.032 395.609 C 249.255 394.988,250.510 394.667,250.705 394.669 C 250.821 394.670,251.404 394.526,252.000 394.349 C 252.596 394.171,253.683 393.861,254.417 393.660 C 256.794 393.007,265.372 390.287,267.000 389.669 C 267.412 389.512,268.012 389.290,268.333 389.176 C 268.654 389.061,269.404 388.784,270.000 388.559 C 270.596 388.334,271.280 388.087,271.521 388.009 C 271.762 387.932,272.212 387.755,272.521 387.616 C 272.830 387.477,273.608 387.161,274.250 386.914 C 274.892 386.668,275.642 386.371,275.917 386.254 C 277.961 385.389,278.657 385.096,279.167 384.886 C 279.972 384.554,280.556 384.293,284.167 382.645 C 285.854 381.875,294.134 377.705,295.667 376.854 C 296.171 376.574,296.846 376.204,297.167 376.032 C 297.896 375.641,300.663 374.054,301.000 373.834 C 301.137 373.744,301.550 373.509,301.917 373.313 C 302.283 373.116,302.621 372.909,302.667 372.853 C 302.712 372.796,303.087 372.568,303.500 372.345 C 304.254 371.937,304.455 371.812,305.833 370.890 C 306.246 370.614,306.902 370.212,307.292 369.997 C 307.681 369.781,308.000 369.544,308.000 369.469 C 308.000 369.395,308.081 369.333,308.180 369.333 C 308.345 369.333,313.808 365.752,314.000 365.517 C 314.046 365.461,314.421 365.191,314.833 364.916 C 315.917 364.194,318.207 362.564,318.502 362.305 C 318.640 362.183,319.277 361.716,319.918 361.268 C 320.559 360.819,321.158 360.365,321.250 360.258 C 321.342 360.152,321.867 359.735,322.417 359.332 C 323.786 358.328,327.526 355.351,327.833 355.020 C 327.971 354.871,328.871 354.101,329.833 353.309 C 330.796 352.516,331.883 351.587,332.250 351.245 C 332.617 350.903,333.929 349.717,335.167 348.611 C 338.067 346.019,346.019 338.067,348.611 335.167 C 349.717 333.929,350.903 332.617,351.245 332.250 C 351.587 331.883,352.516 330.796,353.309 329.833 C 354.101 328.871,354.871 327.971,355.020 327.833 C 355.351 327.526,358.328 323.786,359.332 322.417 C 359.735 321.867,360.152 321.342,360.258 321.250 C 360.365 321.158,360.819 320.559,361.268 319.918 C 361.716 319.277,362.183 318.640,362.305 318.502 C 362.564 318.207,364.194 315.917,364.916 314.833 C 365.191 314.421,365.461 314.046,365.517 314.000 C 365.752 313.808,369.333 308.345,369.333 308.180 C 369.333 308.081,369.395 308.000,369.469 308.000 C 369.544 308.000,369.781 307.681,369.997 307.292 C 370.212 306.902,370.614 306.246,370.890 305.833 C 371.812 304.455,371.937 304.254,372.345 303.500 C 372.568 303.087,372.796 302.712,372.853 302.667 C 372.909 302.621,373.116 302.283,373.313 301.917 C 373.509 301.550,373.744 301.137,373.834 301.000 C 374.054 300.663,375.641 297.896,376.032 297.167 C 376.204 296.846,376.574 296.171,376.854 295.667 C 377.705 294.134,381.875 285.854,382.645 284.167 C 384.293 280.556,384.554 279.972,384.886 279.167 C 385.096 278.657,385.389 277.961,386.254 275.917 C 386.371 275.642,386.668 274.892,386.914 274.250 C 387.161 273.608,387.477 272.830,387.616 272.521 C 387.755 272.212,387.932 271.762,388.009 271.521 C 388.087 271.280,388.334 270.596,388.559 270.000 C 388.784 269.404,389.061 268.654,389.176 268.333 C 389.290 268.012,389.512 267.412,389.669 267.000 C 390.287 265.372,393.007 256.794,393.660 254.417 C 393.861 253.683,394.171 252.596,394.349 252.000 C 394.526 251.404,394.670 250.821,394.669 250.705 C 394.667 250.510,394.988 249.255,395.609 247.032 C 395.745 246.545,395.916 245.795,395.988 245.365 C 396.061 244.935,396.241 244.096,396.388 243.500 C 397.373 239.520,398.710 231.822,399.659 224.667 C 400.116 221.223,400.192 179.011,399.746 176.167 C 399.609 175.296,399.430 173.900,399.347 173.065 C 399.264 172.230,399.081 170.880,398.941 170.065 C 398.800 169.250,398.525 167.608,398.330 166.417 C 397.778 163.044,396.909 158.604,396.388 156.500 C 396.241 155.904,396.061 155.065,395.988 154.635 C 395.916 154.205,395.745 153.455,395.609 152.968 C 394.988 150.745,394.667 149.490,394.669 149.295 C 394.670 149.179,394.526 148.596,394.349 148.000 C 394.171 147.404,393.861 146.317,393.660 145.583 C 393.007 143.206,390.287 134.628,389.669 133.000 C 389.512 132.587,389.290 131.987,389.176 131.667 C 389.061 131.346,388.784 130.596,388.559 130.000 C 388.334 129.404,388.087 128.720,388.009 128.479 C 387.932 128.238,387.755 127.788,387.616 127.479 C 387.477 127.170,387.161 126.392,386.914 125.750 C 386.668 125.108,386.371 124.358,386.254 124.083 C 385.389 122.039,385.096 121.343,384.886 120.833 C 384.554 120.028,384.293 119.444,382.645 115.833 C 381.875 114.146,377.705 105.866,376.854 104.333 C 376.574 103.829,376.204 103.154,376.032 102.833 C 375.641 102.104,374.054 99.337,373.834 99.000 C 373.744 98.862,373.509 98.450,373.313 98.083 C 373.116 97.717,372.909 97.379,372.853 97.333 C 372.796 97.287,372.568 96.912,372.345 96.500 C 371.937 95.746,371.812 95.545,370.890 94.167 C 370.614 93.754,370.212 93.098,369.997 92.708 C 369.781 92.319,369.544 92.000,369.469 92.000 C 369.395 92.000,369.333 91.919,369.333 91.820 C 369.333 91.655,365.752 86.192,365.517 86.000 C 365.461 85.954,365.191 85.579,364.916 85.167 C 364.194 84.083,362.564 81.793,362.305 81.498 C 362.183 81.360,361.716 80.723,361.268 80.082 C 360.819 79.441,360.365 78.842,360.258 78.750 C 360.152 78.658,359.735 78.133,359.332 77.583 C 358.328 76.214,355.351 72.474,355.020 72.167 C 354.871 72.029,354.101 71.129,353.309 70.167 C 352.516 69.204,351.587 68.117,351.245 67.750 C 350.903 67.383,349.717 66.071,348.611 64.833 C 346.019 61.933,338.067 53.981,335.167 51.389 C 333.929 50.283,332.617 49.097,332.250 48.755 C 331.883 48.413,330.796 47.484,329.833 46.691 C 328.871 45.899,327.971 45.129,327.833 44.980 C 327.526 44.649,323.786 41.672,322.417 40.668 C 321.867 40.265,321.342 39.848,321.250 39.742 C 321.158 39.635,320.559 39.181,319.918 38.732 C 319.277 38.284,318.640 37.817,318.502 37.695 C 318.207 37.436,315.917 35.806,314.833 35.084 C 314.421 34.809,314.046 34.539,314.000 34.483 C 313.808 34.248,308.345 30.667,308.180 30.667 C 308.081 30.667,308.000 30.605,308.000 30.531 C 308.000 30.456,307.681 30.219,307.292 30.003 C 306.902 29.788,306.246 29.386,305.833 29.110 C 304.455 28.188,304.254 28.063,303.500 27.655 C 303.087 27.432,302.712 27.204,302.667 27.147 C 302.621 27.091,302.283 26.884,301.917 26.687 C 301.550 26.491,301.137 26.256,301.000 26.166 C 300.663 25.946,297.896 24.359,297.167 23.968 C 296.846 23.796,296.171 23.426,295.667 23.146 C 294.134 22.295,285.854 18.125,284.167 17.355 C 280.556 15.707,279.972 15.446,279.167 15.114 C 278.657 14.904,277.961 14.611,275.917 13.746 C 275.642 13.629,274.892 13.332,274.250 13.086 C 273.608 12.839,272.830 12.523,272.521 12.384 C 272.212 12.245,271.762 12.068,271.521 11.991 C 271.280 11.913,270.596 11.666,270.000 11.441 C 269.404 11.216,268.654 10.939,268.333 10.824 C 268.012 10.710,267.412 10.488,267.000 10.331 C 265.372 9.713,256.794 6.993,254.417 6.340 C 253.683 6.139,252.596 5.829,252.000 5.651 C 251.404 5.474,250.821 5.330,250.705 5.331 C 250.510 5.333,249.255 5.012,247.032 4.391 C 246.545 4.255,245.795 4.084,245.365 4.012 C 244.935 3.939,244.096 3.759,243.500 3.612 C 239.520 2.627,231.822 1.290,224.667 0.341 C 221.347 -0.100,178.658 -0.163,176.000 0.268 " stroke="none" fill="#3c3c3c" fill-rule="evenodd"></path><path id="path3" d="M104.293 73.917 C 104.484 74.192,105.000 74.754,105.440 75.167 C 106.152 75.833,106.131 75.796,105.257 74.833 C 103.940 73.384,103.891 73.338,104.293 73.917 M200.292 74.583 C 200.483 74.858,200.962 75.383,201.356 75.750 C 201.965 76.315,201.937 76.265,201.174 75.417 C 199.969 74.076,199.889 74.000,200.292 74.583 M113.662 84.083 C 114.158 84.633,114.597 85.121,114.638 85.167 C 114.678 85.212,114.632 85.100,114.535 84.917 C 114.438 84.733,113.999 84.246,113.560 83.833 L 112.761 83.083 113.662 84.083 M209.417 84.500 C 209.868 84.958,210.275 85.333,210.321 85.333 C 210.367 85.333,210.035 84.958,209.583 84.500 C 209.132 84.042,208.725 83.667,208.679 83.667 C 208.633 83.667,208.965 84.042,209.417 84.500 M120.959 91.917 C 121.150 92.192,121.628 92.717,122.023 93.083 C 122.631 93.649,122.604 93.598,121.841 92.750 C 120.636 91.410,120.555 91.334,120.959 91.917 M216.798 92.417 C 216.895 92.600,217.334 93.087,217.774 93.500 L 218.573 94.250 217.671 93.250 C 217.175 92.700,216.736 92.212,216.696 92.167 C 216.655 92.121,216.701 92.233,216.798 92.417 M130.247 102.000 C 130.789 102.596,131.266 103.121,131.306 103.167 C 131.346 103.212,131.299 103.100,131.202 102.917 C 131.105 102.733,130.628 102.208,130.143 101.750 L 129.260 100.917 130.247 102.000 M225.917 102.333 C 226.368 102.792,226.775 103.167,226.821 103.167 C 226.867 103.167,226.535 102.792,226.083 102.333 C 225.632 101.875,225.225 101.500,225.179 101.500 C 225.133 101.500,225.465 101.875,225.917 102.333 M137.465 109.750 C 137.562 109.933,138.039 110.458,138.524 110.917 L 139.407 111.750 138.420 110.667 C 137.878 110.071,137.401 109.546,137.361 109.500 C 137.321 109.454,137.368 109.567,137.465 109.750 M234.258 111.341 C 234.712 111.849,235.117 112.240,235.159 112.210 C 235.200 112.179,234.829 111.764,234.333 111.286 L 233.432 110.417 234.258 111.341 M146.743 119.833 C 148.060 121.283,148.109 121.329,147.707 120.750 C 147.516 120.475,147.000 119.912,146.560 119.500 C 145.848 118.833,145.869 118.870,146.743 119.833 M241.626 119.250 C 241.816 119.525,242.295 120.050,242.690 120.417 C 243.298 120.982,243.270 120.931,242.508 120.083 C 241.302 118.743,241.222 118.667,241.626 119.250 M154.131 127.750 C 154.228 127.933,154.667 128.421,155.107 128.833 L 155.906 129.583 155.005 128.583 C 154.509 128.033,154.070 127.546,154.029 127.500 C 153.988 127.454,154.034 127.567,154.131 127.750 M250.750 129.167 C 251.201 129.625,251.608 130.000,251.654 130.000 C 251.700 130.000,251.368 129.625,250.917 129.167 C 250.465 128.708,250.058 128.333,250.013 128.333 C 249.967 128.333,250.299 128.708,250.750 129.167 M163.250 137.667 C 163.701 138.125,164.108 138.500,164.154 138.500 C 164.200 138.500,163.868 138.125,163.417 137.667 C 162.965 137.208,162.558 136.833,162.513 136.833 C 162.467 136.833,162.799 137.208,163.250 137.667 M258.131 137.083 C 258.228 137.267,258.667 137.754,259.107 138.167 L 259.906 138.917 259.005 137.917 C 258.509 137.367,258.070 136.879,258.029 136.833 C 257.988 136.787,258.034 136.900,258.131 137.083 M171.583 146.667 C 172.035 147.125,172.442 147.500,172.487 147.500 C 172.533 147.500,172.201 147.125,171.750 146.667 C 171.299 146.208,170.892 145.833,170.846 145.833 C 170.800 145.833,171.132 146.208,171.583 146.667 M267.250 147.000 C 267.701 147.458,268.108 147.833,268.154 147.833 C 268.200 147.833,267.868 147.458,267.417 147.000 C 266.965 146.542,266.558 146.167,266.513 146.167 C 266.467 146.167,266.799 146.542,267.250 147.000 M178.959 154.583 C 179.150 154.858,179.667 155.421,180.107 155.833 C 180.818 156.500,180.798 156.463,179.923 155.500 C 178.607 154.051,178.558 154.004,178.959 154.583 M275.591 156.007 C 276.045 156.516,276.451 156.907,276.492 156.876 C 276.534 156.846,276.162 156.430,275.666 155.952 L 274.765 155.083 275.591 156.007 M282.959 163.917 C 283.150 164.192,283.628 164.717,284.023 165.083 C 284.631 165.649,284.604 165.598,283.841 164.750 C 282.636 163.410,282.555 163.334,282.959 163.917 M188.247 164.667 C 188.789 165.262,189.266 165.787,189.306 165.833 C 189.346 165.879,189.299 165.767,189.202 165.583 C 189.105 165.400,188.628 164.875,188.143 164.417 L 187.260 163.583 188.247 164.667 M195.626 172.583 C 195.816 172.858,196.295 173.383,196.690 173.750 C 197.298 174.315,197.270 174.265,196.508 173.417 C 195.302 172.076,195.222 172.000,195.626 172.583 M292.083 173.833 C 292.535 174.292,292.942 174.667,292.987 174.667 C 293.033 174.667,292.701 174.292,292.250 173.833 C 291.799 173.375,291.392 173.000,291.346 173.000 C 291.300 173.000,291.632 173.375,292.083 173.833 M299.465 181.750 C 299.562 181.933,300.001 182.421,300.440 182.833 L 301.239 183.583 300.338 182.583 C 299.842 182.033,299.403 181.546,299.362 181.500 C 299.322 181.454,299.368 181.567,299.465 181.750 M204.826 182.583 C 206.031 183.924,206.111 184.000,205.708 183.417 C 205.517 183.142,205.038 182.617,204.644 182.250 C 204.035 181.685,204.063 181.735,204.826 182.583 M212.132 190.417 C 212.229 190.600,212.705 191.125,213.191 191.583 L 214.073 192.417 213.087 191.333 C 212.544 190.737,212.068 190.213,212.028 190.167 C 211.988 190.121,212.034 190.233,212.132 190.417 M307.626 190.583 C 307.817 190.858,308.333 191.421,308.773 191.833 C 309.485 192.500,309.465 192.463,308.590 191.500 C 307.273 190.051,307.225 190.004,307.626 190.583 M220.774 200.866 C 217.006 204.959,211.961 210.375,211.344 210.989 C 207.944 214.371,202.355 220.667,202.626 220.810 C 202.786 220.895,205.242 222.069,208.083 223.420 C 215.126 226.767,218.037 228.148,222.750 230.378 C 224.400 231.159,226.650 232.227,227.750 232.753 C 228.850 233.278,230.987 234.290,232.500 235.002 C 234.012 235.714,236.150 236.726,237.250 237.250 C 238.350 237.775,239.850 238.488,240.583 238.835 C 242.454 239.719,248.439 242.557,250.333 243.458 C 251.204 243.873,253.379 244.904,255.167 245.750 C 256.954 246.596,260.583 248.316,263.230 249.571 C 268.373 252.009,269.096 252.214,267.805 250.869 C 267.122 250.157,262.681 245.359,256.586 238.750 C 255.318 237.375,253.444 235.350,252.422 234.250 C 250.539 232.225,247.628 229.079,240.079 220.914 C 225.658 205.316,221.261 200.580,221.178 200.557 C 221.126 200.542,220.944 200.681,220.774 200.866 M312.161 205.458 L 311.250 206.417 312.208 205.506 C 312.735 205.005,313.167 204.573,313.167 204.547 C 313.167 204.424,313.007 204.568,312.161 205.458 M302.411 215.875 L 301.417 216.917 302.458 215.922 C 303.426 214.998,303.576 214.833,303.453 214.833 C 303.427 214.833,302.959 215.302,302.411 215.875 M200.911 222.042 L 199.917 223.083 200.958 222.089 C 201.926 221.164,202.076 221.000,201.953 221.000 C 201.927 221.000,201.459 221.469,200.911 222.042 M198.911 224.208 L 197.917 225.250 198.958 224.255 C 199.531 223.708,200.000 223.239,200.000 223.214 C 200.000 223.090,199.836 223.241,198.911 224.208 M292.652 226.292 C 291.893 227.081,290.865 228.312,291.435 227.750 C 292.058 227.134,293.706 225.333,293.646 225.333 C 293.606 225.333,293.158 225.765,292.652 226.292 M191.078 232.542 L 190.083 233.583 191.125 232.589 C 191.698 232.041,192.167 231.573,192.167 231.547 C 192.167 231.424,192.002 231.574,191.078 232.542 M189.088 234.662 C 188.546 235.210,188.136 235.681,188.176 235.709 C 188.217 235.737,188.694 235.289,189.236 234.713 C 190.488 233.384,190.387 233.349,189.088 234.662 M282.745 236.875 L 281.750 237.917 282.792 236.922 C 283.759 235.998,283.910 235.833,283.786 235.833 C 283.761 235.833,283.292 236.302,282.745 236.875 M180.500 243.781 C 179.354 245.028,178.349 246.169,178.267 246.316 C 178.185 246.463,178.152 246.546,178.195 246.500 C 179.439 245.163,182.312 242.006,182.479 241.792 C 183.060 241.049,182.415 241.697,180.500 243.781 M272.994 247.292 L 272.083 248.250 273.042 247.339 C 273.932 246.493,274.076 246.333,273.953 246.333 C 273.927 246.333,273.495 246.765,272.994 247.292 M171.508 253.388 L 170.433 254.583 171.396 253.667 C 172.184 252.915,172.844 252.121,172.631 252.180 C 172.605 252.187,172.100 252.731,171.508 253.388 M169.411 255.708 L 168.417 256.750 169.458 255.755 C 170.031 255.208,170.500 254.739,170.500 254.714 C 170.500 254.590,170.336 254.741,169.411 255.708 M260.911 259.875 L 259.917 260.917 260.958 259.922 C 261.926 258.998,262.076 258.833,261.953 258.833 C 261.927 258.833,261.459 259.302,260.911 259.875 M258.994 261.958 L 258.083 262.917 259.042 262.006 C 259.569 261.505,260.000 261.073,260.000 261.047 C 260.000 260.924,259.841 261.068,258.994 261.958 M161.578 264.042 L 160.583 265.083 161.625 264.089 C 162.198 263.541,162.667 263.073,162.667 263.047 C 162.667 262.924,162.502 263.074,161.578 264.042 M159.578 266.208 L 158.583 267.250 159.625 266.255 C 160.198 265.708,160.667 265.239,160.667 265.214 C 160.667 265.090,160.502 265.241,159.578 266.208 M250.333 271.119 C 249.188 272.363,248.183 273.502,248.100 273.649 C 248.018 273.796,247.987 273.879,248.031 273.833 C 249.163 272.650,252.500 268.982,252.500 268.919 C 252.500 268.769,252.456 268.814,250.333 271.119 M151.745 274.542 L 150.750 275.583 151.792 274.589 C 152.365 274.041,152.833 273.573,152.833 273.547 C 152.833 273.424,152.669 273.574,151.745 274.542 M149.745 276.708 L 148.750 277.750 149.792 276.755 C 150.365 276.208,150.833 275.739,150.833 275.714 C 150.833 275.590,150.669 275.741,149.745 276.708 M240.441 281.698 C 239.355 282.872,238.502 283.833,238.546 283.833 C 238.668 283.833,242.554 279.662,242.481 279.609 C 242.445 279.583,241.528 280.523,240.441 281.698 M141.042 285.915 C 139.827 287.233,138.833 288.351,138.833 288.400 C 138.833 288.489,142.732 284.324,143.147 283.792 C 143.719 283.058,143.080 283.702,141.042 285.915 M231.494 291.292 L 230.583 292.250 231.542 291.339 C 232.432 290.493,232.576 290.333,232.453 290.333 C 232.427 290.333,231.995 290.765,231.494 291.292 M229.578 293.375 L 228.583 294.417 229.625 293.422 C 230.198 292.875,230.667 292.406,230.667 292.380 C 230.667 292.257,230.502 292.407,229.578 293.375 M131.167 296.452 C 130.021 297.696,129.016 298.835,128.934 298.982 C 128.851 299.129,128.820 299.212,128.864 299.167 C 129.997 297.984,133.333 294.315,133.333 294.253 C 133.333 294.102,133.289 294.147,131.167 296.452 M221.745 301.708 L 220.750 302.750 221.792 301.755 C 222.365 301.208,222.833 300.739,222.833 300.714 C 222.833 300.590,222.669 300.741,221.745 301.708 M219.693 303.902 C 219.129 304.490,218.667 305.028,218.667 305.097 C 218.667 305.166,218.689 305.191,218.716 305.153 C 218.743 305.115,219.242 304.577,219.825 303.958 C 220.409 303.340,220.849 302.833,220.803 302.833 C 220.757 302.833,220.258 303.314,219.693 303.902 M122.078 306.208 L 121.083 307.250 122.125 306.255 C 122.698 305.708,123.167 305.239,123.167 305.214 C 123.167 305.090,123.002 305.241,122.078 306.208 M120.161 308.292 L 119.250 309.250 120.208 308.339 C 120.735 307.838,121.167 307.407,121.167 307.381 C 121.167 307.257,121.007 307.401,120.161 308.292 M211.167 312.944 C 209.590 314.662,208.106 316.407,208.780 315.750 C 209.349 315.196,213.167 310.992,213.167 310.921 C 213.167 310.768,213.118 310.817,211.167 312.944 M112.328 316.625 L 111.417 317.583 112.375 316.672 C 112.902 316.171,113.333 315.740,113.333 315.714 C 113.333 315.590,113.174 315.735,112.328 316.625 M110.411 318.708 L 109.417 319.750 110.458 318.755 C 111.031 318.208,111.500 317.739,111.500 317.714 C 111.500 317.590,111.336 317.741,110.411 318.708 M202.078 322.708 L 201.083 323.750 202.125 322.755 C 202.698 322.208,203.167 321.739,203.167 321.714 C 203.167 321.590,203.002 321.741,202.078 322.708 M200.078 324.875 L 199.083 325.917 200.125 324.922 C 201.093 323.998,201.243 323.833,201.120 323.833 C 201.094 323.833,200.625 324.302,200.078 324.875 M101.415 328.255 C 100.337 329.404,99.484 330.365,99.519 330.391 C 99.555 330.417,100.472 329.477,101.559 328.302 C 102.645 327.128,103.498 326.167,103.454 326.167 C 103.410 326.167,102.493 327.107,101.415 328.255 M137.875 332.458 C 140.602 332.484,145.065 332.484,147.792 332.458 C 150.519 332.433,148.287 332.412,142.833 332.412 C 137.379 332.412,135.148 332.433,137.875 332.458 " stroke="none" fill="#7c130c" fill-rule="evenodd"></path><path id="path4" d="M184.417 67.452 C 189.454 67.569,193.962 67.572,193.891 67.458 C 193.849 67.390,191.249 67.350,188.115 67.369 C 184.981 67.389,183.317 67.426,184.417 67.452 M197.917 72.000 C 198.368 72.458,198.775 72.833,198.821 72.833 C 198.867 72.833,198.535 72.458,198.083 72.000 C 197.632 71.542,197.225 71.167,197.179 71.167 C 197.133 71.167,197.465 71.542,197.917 72.000 M206.167 80.917 C 206.665 81.421,207.109 81.833,207.155 81.833 C 207.201 81.833,206.831 81.421,206.333 80.917 C 205.835 80.412,205.391 80.000,205.345 80.000 C 205.299 80.000,205.669 80.412,206.167 80.917 M214.417 89.833 C 214.868 90.292,215.275 90.667,215.321 90.667 C 215.367 90.667,215.035 90.292,214.583 89.833 C 214.132 89.375,213.725 89.000,213.679 89.000 C 213.633 89.000,213.965 89.375,214.417 89.833 M221.793 97.750 C 221.984 98.025,222.500 98.587,222.940 99.000 C 223.652 99.667,223.631 99.630,222.757 98.667 C 221.440 97.217,221.391 97.171,221.793 97.750 M230.917 107.667 C 231.368 108.125,231.775 108.500,231.821 108.500 C 231.867 108.500,231.535 108.125,231.083 107.667 C 230.632 107.208,230.225 106.833,230.179 106.833 C 230.133 106.833,230.465 107.208,230.917 107.667 M239.160 116.542 C 239.568 116.977,239.925 117.333,239.951 117.333 C 240.077 117.333,239.944 117.184,239.208 116.493 L 238.417 115.750 239.160 116.542 M247.417 125.500 C 247.868 125.958,248.275 126.333,248.321 126.333 C 248.367 126.333,248.035 125.958,247.583 125.500 C 247.132 125.042,246.725 124.667,246.679 124.667 C 246.633 124.667,246.965 125.042,247.417 125.500 M255.758 134.507 C 256.212 135.016,256.617 135.407,256.659 135.376 C 256.700 135.346,256.329 134.930,255.833 134.452 L 254.932 133.583 255.758 134.507 M263.126 142.417 C 263.316 142.692,263.795 143.217,264.190 143.583 C 264.798 144.149,264.770 144.098,264.008 143.250 C 262.802 141.910,262.722 141.834,263.126 142.417 M272.250 152.333 C 272.701 152.792,273.108 153.167,273.154 153.167 C 273.200 153.167,272.868 152.792,272.417 152.333 C 271.965 151.875,271.558 151.500,271.513 151.500 C 271.467 151.500,271.799 151.875,272.250 152.333 M280.493 161.208 C 281.184 161.944,281.333 162.077,281.333 161.951 C 281.333 161.925,280.977 161.568,280.542 161.160 L 279.750 160.417 280.493 161.208 M288.750 170.167 C 289.201 170.625,289.608 171.000,289.654 171.000 C 289.700 171.000,289.368 170.625,288.917 170.167 C 288.465 169.708,288.058 169.333,288.013 169.333 C 287.967 169.333,288.299 169.708,288.750 170.167 M297.091 179.174 C 297.545 179.682,297.951 180.073,297.992 180.043 C 298.034 180.013,297.662 179.597,297.166 179.119 L 296.265 178.250 297.091 179.174 M304.459 187.083 C 304.650 187.358,305.128 187.883,305.523 188.250 C 306.131 188.815,306.104 188.765,305.341 187.917 C 304.136 186.576,304.055 186.500,304.459 187.083 M313.583 197.000 C 314.035 197.458,314.442 197.833,314.487 197.833 C 314.533 197.833,314.201 197.458,313.750 197.000 C 313.299 196.542,312.892 196.167,312.846 196.167 C 312.800 196.167,313.132 196.542,313.583 197.000 M308.245 209.708 L 307.250 210.750 308.292 209.755 C 308.865 209.208,309.333 208.739,309.333 208.714 C 309.333 208.590,309.169 208.741,308.245 209.708 M298.494 220.125 L 297.583 221.083 298.542 220.172 C 299.069 219.671,299.500 219.240,299.500 219.214 C 299.500 219.090,299.341 219.235,298.494 220.125 M195.005 228.245 C 194.416 228.839,193.969 229.347,194.009 229.375 C 194.050 229.402,194.565 228.917,195.154 228.296 C 196.515 226.859,196.413 226.825,195.005 228.245 M288.745 230.542 L 287.750 231.583 288.792 230.589 C 289.759 229.664,289.910 229.500,289.786 229.500 C 289.761 229.500,289.292 229.969,288.745 230.542 M185.078 238.875 L 184.083 239.917 185.125 238.922 C 186.093 237.998,186.243 237.833,186.120 237.833 C 186.094 237.833,185.625 238.302,185.078 238.875 M278.923 240.995 L 277.929 242.083 278.999 241.048 C 279.587 240.478,280.034 239.988,279.992 239.959 C 279.951 239.930,279.470 240.396,278.923 240.995 M175.245 249.375 L 174.250 250.417 175.292 249.422 C 175.865 248.875,176.333 248.406,176.333 248.380 C 176.333 248.257,176.169 248.407,175.245 249.375 M269.491 251.125 L 268.917 251.750 269.542 251.176 C 270.123 250.641,270.243 250.500,270.116 250.500 C 270.088 250.500,269.807 250.781,269.491 251.125 M268.249 251.834 C 267.823 252.305,268.004 252.349,268.452 251.883 C 268.655 251.673,268.761 251.500,268.687 251.500 C 268.612 251.500,268.415 251.650,268.249 251.834 M262.949 257.781 C 261.317 259.552,260.018 261.000,260.063 261.000 C 260.185 261.000,266.053 254.661,265.980 254.608 C 265.945 254.583,264.581 256.011,262.949 257.781 M165.411 259.875 L 164.417 260.917 165.458 259.922 C 166.031 259.375,166.500 258.906,166.500 258.880 C 166.500 258.757,166.336 258.907,165.411 259.875 M255.245 266.042 C 254.697 266.615,253.801 267.552,253.255 268.125 C 252.708 268.698,252.305 269.167,252.360 269.167 C 252.414 269.167,253.338 268.229,254.413 267.083 C 255.488 265.938,256.339 265.000,256.304 265.000 C 256.269 265.000,255.792 265.469,255.245 266.042 M155.578 270.375 L 154.583 271.417 155.625 270.422 C 156.198 269.875,156.667 269.406,156.667 269.380 C 156.667 269.257,156.502 269.407,155.578 270.375 M251.245 270.375 L 250.250 271.417 251.292 270.422 C 251.865 269.875,252.333 269.406,252.333 269.380 C 252.333 269.257,252.169 269.407,251.245 270.375 M245.328 276.625 L 244.417 277.583 245.375 276.672 C 245.902 276.171,246.333 275.740,246.333 275.714 C 246.333 275.590,246.174 275.735,245.328 276.625 M243.411 278.708 L 242.417 279.750 243.458 278.755 C 244.031 278.208,244.500 277.739,244.500 277.714 C 244.500 277.590,244.336 277.741,243.411 278.708 M145.745 280.875 L 144.750 281.917 145.792 280.922 C 146.365 280.375,146.833 279.906,146.833 279.880 C 146.833 279.757,146.669 279.907,145.745 280.875 M241.411 280.875 L 240.417 281.917 241.458 280.922 C 242.031 280.375,242.500 279.906,242.500 279.880 C 242.500 279.757,242.336 279.907,241.411 280.875 M236.411 286.080 C 236.322 286.207,234.988 287.666,233.445 289.322 C 231.903 290.978,230.677 292.333,230.721 292.333 C 230.858 292.333,236.709 285.987,236.638 285.916 C 236.602 285.879,236.499 285.953,236.411 286.080 M135.911 291.375 L 134.917 292.417 135.958 291.422 C 136.531 290.875,137.000 290.406,137.000 290.380 C 137.000 290.257,136.836 290.407,135.911 291.375 M223.726 299.708 C 222.092 301.473,220.887 302.811,221.050 302.683 C 221.440 302.374,226.883 296.500,226.779 296.500 C 226.734 296.500,225.361 297.944,223.726 299.708 M126.078 301.875 L 125.083 302.917 126.125 301.922 C 126.698 301.375,127.167 300.906,127.167 300.880 C 127.167 300.757,127.002 300.907,126.078 301.875 M215.911 308.042 L 214.917 309.083 215.958 308.089 C 216.531 307.541,217.000 307.073,217.000 307.047 C 217.000 306.924,216.836 307.074,215.911 308.042 M213.911 310.208 L 212.917 311.250 213.958 310.255 C 214.926 309.331,215.076 309.167,214.953 309.167 C 214.927 309.167,214.459 309.635,213.911 310.208 M116.245 312.375 L 115.250 313.417 116.292 312.422 C 116.865 311.875,117.333 311.406,117.333 311.380 C 117.333 311.257,117.169 311.407,116.245 312.375 M211.994 312.292 L 211.083 313.250 212.042 312.339 C 212.569 311.838,213.000 311.407,213.000 311.381 C 213.000 311.257,212.841 311.401,211.994 312.292 M204.060 320.708 C 202.425 322.473,201.221 323.811,201.384 323.683 C 201.773 323.374,207.216 317.500,207.112 317.500 C 207.068 317.500,205.694 318.944,204.060 320.708 M106.338 322.912 C 105.750 323.505,105.302 324.014,105.343 324.041 C 105.383 324.069,105.898 323.584,106.487 322.963 C 107.848 321.526,107.746 321.491,106.338 322.912 M195.223 330.125 L 193.083 332.417 172.833 332.501 L 152.583 332.585 172.833 332.617 L 193.083 332.649 195.302 330.241 C 196.522 328.917,197.485 327.833,197.442 327.833 C 197.399 327.833,196.401 328.865,195.223 330.125 M106.375 332.625 C 111.302 332.649,119.365 332.649,124.292 332.625 C 129.219 332.600,125.188 332.580,115.333 332.580 C 105.479 332.580,101.448 332.600,106.375 332.625 " stroke="none" fill="#443c3c" fill-rule="evenodd"></path></g></svg>