<svg version="1.1" xmlns="http://www.w3.org/2000/svg" x="0" y="0" viewBox="0 0 200 65" xml:space="preserve"><g id="Vektor"><path fill="#1B1B2D" d="M0 0h44.092v44.092H0z"/><g fill="#00CA75"><path d="M91.96 29.767H80.184l-1.818 6.321H70.66l11.213-32.47h8.702l11.343 32.47h-8.14l-1.818-6.321zm-6.754-17.231l-3.247 11.126h8.269L87.11 12.536l-.866-3.42h-.13l-.908 3.42zM123.085 14.441c-1.558-.606-3.593-.996-5.888-.996-5.368 0-7.1 2.078-7.1 8.486 0 6.754 1.819 8.832 7.187 8.832 2.252 0 4.243-.476 5.888-1.169l.736 5.411c-2.078.953-4.892 1.602-7.533 1.602-8.962 0-13.378-4.849-13.378-14.72 0-9.265 4.243-14.417 13.854-14.417 2.425 0 5.152.563 6.97 1.212l-.736 5.759zM146.376 14.441c-1.558-.606-3.593-.996-5.888-.996-5.368 0-7.1 2.078-7.1 8.486 0 6.754 1.819 8.832 7.187 8.832 2.252 0 4.243-.476 5.888-1.169l.736 5.411c-2.078.953-4.892 1.602-7.533 1.602-8.962 0-13.378-4.849-13.378-14.72 0-9.265 4.243-14.417 13.854-14.417 2.425 0 5.152.563 6.97 1.212l-.736 5.759zM159.752 36.608c-3.507 0-6.668-.779-9.265-2.122l.866-5.758c2.641 1.385 5.369 2.165 8.356 2.165 3.161 0 4.546-1.082 4.546-2.857 0-4.199-13.637-2.122-13.637-11.776 0-4.762 3.16-8.745 10.736-8.745 2.901 0 6.061.52 8.399 1.515l-.779 5.585c-2.598-.779-5.022-1.255-7.317-1.255-3.593 0-4.546 1.169-4.546 2.554 0 4.156 13.637 1.905 13.637 11.646 0 5.541-4.113 9.048-10.996 9.048zM186.721 36.608c-9.265 0-13.204-4.805-13.204-14.547 0-9.784 3.853-14.503 13.204-14.503 9.308 0 13.161 4.719 13.161 14.503.001 9.914-3.809 14.547-13.161 14.547zm0-23.163c-4.502 0-6.104 1.819-6.104 8.615 0 6.711 1.602 8.615 6.104 8.615 4.503 0 6.018-1.904 6.018-8.615 0-6.796-1.472-8.615-6.018-8.615z"/></g><g fill="#00CA75"><path d="M65.05 13.628H28.82l1.878-5.611h36.23zM61.268 24.852h-36.23l1.877-5.612h36.231zM57.486 36.075H21.255l1.878-5.612h36.23z"/></g><g fill="#1B1B2D"><path d="M6.067 60.789H1.713l-.856 2.542H0l3.437-9.628h.941l3.437 9.628h-.892l-.856-2.542zm-2.485-5.468l-1.604 4.711h3.836l-1.58-4.711-.302-.989h-.036l-.314.989zM16.949 54.794c-.494-.244-1.218-.437-1.966-.437-2.062 0-3.027 1.001-3.027 4.057 0 3.261.977 4.288 3.063 4.288.76 0 1.411-.193 1.954-.501l.133.732a4.703 4.703 0 0 1-2.183.578c-2.629 0-3.787-1.553-3.787-5.097 0-3.376 1.182-4.866 3.811-4.866.76 0 1.64.218 2.111.462l-.109.784zM26.493 54.794c-.494-.244-1.218-.437-1.966-.437-2.062 0-3.027 1.001-3.027 4.057 0 3.261.977 4.288 3.063 4.288.76 0 1.411-.193 1.954-.501l.133.732a4.703 4.703 0 0 1-2.183.578c-2.629 0-3.787-1.553-3.787-5.097 0-3.376 1.182-4.866 3.811-4.866.76 0 1.64.218 2.111.462l-.109.784zM36.301 62.535l-.036.796h-5.549v-9.628h5.331l.036.796H31.5v3.427h3.968v.719H31.5v3.89h4.801zM45.724 62.509l-.036.822h-5.247v-9.628h.796v8.807h4.487zM55.147 62.535l-.036.796h-5.549v-9.628h5.331l.036.796h-4.583v3.427h3.968v.719h-3.968v3.89h4.801zM62.941 58.851l2.521 4.48h-.965l-2.316-4.326h-2.099v4.326h-.796v-9.628h2.931c1.821 0 2.653.847 2.653 2.606.001 1.566-.674 2.388-1.929 2.542zm-.723-4.391h-2.135v3.851h2.062c1.315 0 1.905-.565 1.905-1.964.001-1.348-.566-1.887-1.832-1.887zM74.355 60.789H70l-.856 2.542h-.856l3.437-9.628h.941l3.437 9.628h-.893l-.855-2.542zm-2.485-5.468l-1.604 4.711h3.836l-1.58-4.711-.302-.989h-.036l-.314.989zM82.439 54.524v8.807h-.796v-8.807h-2.834l.024-.822h6.441l.012.822h-2.847zM94.612 62.535l-.036.796h-5.549v-9.628h5.331l.036.796h-4.583v3.427h3.968v.719h-3.968v3.89h4.801zM101.718 63.331h-2.967v-9.628h2.955c2.665 0 3.8 1.361 3.8 4.776 0 3.517-1.218 4.852-3.788 4.852zm-.035-8.807h-2.135v7.998h2.147c1.99 0 2.979-.86 2.979-4.044 0-3.042-.893-3.954-2.991-3.954zM117.814 63.511c-1.037 0-1.882-.296-2.569-.745l.145-.796c.699.488 1.471.745 2.424.745 1.436 0 2.171-.745 2.171-1.99 0-2.581-4.643-1.451-4.643-4.622 0-1.45.868-2.555 2.81-2.555.881 0 1.676.193 2.316.514l-.145.758c-.687-.308-1.351-.488-2.135-.488-1.496 0-2.087.809-2.087 1.72 0 2.452 4.656 1.296 4.656 4.621 0 1.759-1.014 2.838-2.943 2.838zM127.96 63.511c-2.605 0-3.606-1.425-3.606-4.994s.989-4.968 3.606-4.968c2.629 0 3.606 1.399 3.606 4.968 0 3.582-.977 4.994-3.606 4.994zm0-9.153c-1.99 0-2.786.912-2.786 4.16 0 3.235.796 4.172 2.798 4.172 1.99 0 2.774-.937 2.774-4.172 0-3.249-.784-4.16-2.786-4.16zM141.195 62.509l-.036.822h-5.247v-9.628h.796v8.807h4.487zM151.498 59.852c0 2.581-1.23 3.659-3.329 3.659-2.111 0-3.341-1.078-3.341-3.659v-6.149h.796v6.149c0 1.977.844 2.837 2.545 2.837 1.689 0 2.533-.886 2.533-2.837v-6.149h.796v6.149zM158.666 54.524v8.807h-.796v-8.807h-2.834l.024-.822h6.441l.012.822h-2.847zM165.423 53.703h.796v9.628h-.796v-9.628zM174.35 63.511c-2.605 0-3.606-1.425-3.606-4.994s.989-4.968 3.606-4.968c2.629 0 3.606 1.399 3.606 4.968 0 3.582-.977 4.994-3.606 4.994zm0-9.153c-1.99 0-2.786.912-2.786 4.16 0 3.235.796 4.172 2.798 4.172 1.99 0 2.774-.937 2.774-4.172 0-3.249-.784-4.16-2.786-4.16zM188.248 63.331l-4.68-7.446-.531-.873-.024.013.012 1.04v7.266h-.724v-9.628h.784l4.523 7.266.531.873.024-.013-.024-1.027-.012-7.099h.712v9.628h-.591zM195.621 63.511c-1.037 0-1.882-.296-2.569-.745l.145-.796c.699.488 1.471.745 2.424.745 1.436 0 2.171-.745 2.171-1.99 0-2.581-4.643-1.451-4.643-4.622 0-1.45.868-2.555 2.81-2.555.881 0 1.676.193 2.316.514l-.145.758c-.687-.308-1.351-.488-2.135-.488-1.496 0-2.087.809-2.087 1.72 0 2.452 4.656 1.296 4.656 4.621 0 1.759-1.013 2.838-2.943 2.838z"/></g></g></svg>