<?xml version="1.0" encoding="utf-8"?>
<!-- Generator: Adobe Illustrator 17.0.0, SVG Export Plug-In . SVG Version: 6.00 Build 0)  -->
<!DOCTYPE svg PUBLIC "-//W3C//DTD SVG 1.1//EN" "http://www.w3.org/Graphics/SVG/1.1/DTD/svg11.dtd">
<svg version="1.1" id="Layer_1" xmlns="http://www.w3.org/2000/svg" xmlns:xlink="http://www.w3.org/1999/xlink" x="0px" y="0px"
	 width="200px" height="55px" viewBox="0 0 200 55" enable-background="new 0 0 200 55" xml:space="preserve">
<g>
	<path fill-rule="evenodd" clip-rule="evenodd" fill="#FCC401" d="M18.133,45.107c0,0,2.461,10.237,7.032,9.884
		c4.57-0.353,11.251-12.707,23.909-14.825c10.883-1.821,23.17-3.545,26.62-3.993H13.756L18.133,45.107z"/>
	<path fill-rule="evenodd" clip-rule="evenodd" fill="#E54114" d="M0,36.172c1.382,1.136,12.038,9.688,20.243,10.347
		c8.79,0.706,27.596-10.327,29.354-10.327L0,36.172z"/>
	<path fill-rule="evenodd" clip-rule="evenodd" fill="#EC7F04" d="M21.381,47.185c-0.187-0.06-0.373-0.126-0.562-0.178
		c-1.274-0.349-2.206-1.144-2.882-2.255c-0.435-0.716-0.845-1.449-1.243-2.186c-1.463-2.715-3.759-4.366-6.643-5.271
		c-1.706-0.535-3.453-0.858-5.231-1.027c-0.232-0.022-0.464-0.055-0.736-0.087h5.965c1.127,0,2.254,0.001,3.381-0.001
		c0.146,0,0.317,0.053,0.371-0.176c0.01-0.043,0.128-0.08,0.2-0.088c1.507-0.169,2.769-0.879,3.923-1.81
		c1.728-1.394,3.037-3.147,4.198-5.019c1.834-2.957,3.215-6.132,4.422-9.387c1.543-4.161,2.758-8.422,3.836-12.726
		c0.458-1.826,1.06-3.608,2.109-5.193c0.305-0.46,0.685-0.89,1.103-1.249c0.78-0.67,1.66-0.694,2.536-0.152
		c0.707,0.438,1.239,1.056,1.712,1.726c1.248,1.767,2.098,3.737,2.88,5.739c1.318,3.374,2.283,6.861,3.295,10.335
		c0.328,1.127,0.892,2.191,1.395,3.261c1.559,3.314,3.27,6.546,5.457,9.492c0.777,1.046,1.691,1.99,2.548,2.976
		c0.083,0.095,0.208,0.155,0.313,0.231v1.883c-1.182-0.006-2.364-0.02-3.545-0.012c-0.189,0.001-0.397,0.058-0.564,0.15
		c-1.183,0.649-2.35,1.328-3.535,1.971c-4.352,2.361-8.772,4.582-13.363,6.443c-2.281,0.925-4.593,1.759-7.003,2.289
		c-0.507,0.112-1.016,0.214-1.525,0.321C23.258,47.373,22.296,47.435,21.381,47.185"/>
	<path fill-rule="evenodd" clip-rule="evenodd" fill="#0FADD5" d="M75.694,36.172c-1.989-0.475-11.114-7.862-20.805-18.95
		C52.18,14.124,43.801,3.104,34.307,16.87c-8.804,12.767-12.769,18.287-15.543,19.303H75.694z"/>
	<path fill-rule="evenodd" clip-rule="evenodd" fill="#2C2965" d="M53.152,36.172c-4.164-2.488-10.644-23.573-11.443-25.664
		c-2.785,0.552-6.384,3.631-8.808,7.067C23.263,31.24,15.321,36.15,12.553,36.15c-0.343,0,0.537,0.009,2.304,0.022H53.152z"/>
	<path fill="#382490" d="M81.26,27.138c0-7.389,2.037-10.333,7.93-10.333c2.444,0,4.155,0.6,5.459,1.445l-1.657,2.59
		c-0.896-0.518-2.064-1.009-3.938-1.009c-3.123,0-4.644,1.418-4.644,7.362c0,5.671,1.086,7.552,4.535,7.552
		c2.987,0,3.639-1.336,3.639-5.726v-0.627h-4.481v-2.754h7.496v2.863c0,6.735-1.331,8.943-6.925,8.943
		C82.835,37.444,81.26,33.818,81.26,27.138"/>
	<path fill="#382490" d="M102.742,37.253c-2.716,0-3.693-0.9-3.693-3.844v-17.15h3.042v16.768c0,1.2,0.081,1.527,1.738,1.527v2.672
		C103.665,37.253,103.366,37.253,102.742,37.253"/>
	<path fill="#382490" d="M106.68,29.565c0-4.58,1.059-7.852,6.273-7.852c5.241,0,6.273,3.326,6.273,7.852
		c0,4.69-1.032,7.88-6.273,7.88C107.793,37.444,106.68,34.2,106.68,29.565 M116.158,29.674c0-2.999-0.299-5.099-3.205-5.099
		c-2.879,0-3.205,2.099-3.205,5.099c0,2.972,0.326,5.099,3.205,5.099C115.859,34.772,116.158,32.645,116.158,29.674"/>
	<path fill="#382490" d="M122.621,16.259h3.014v7.062c0.706-1.063,1.955-1.609,4.291-1.609c4.508,0,5.051,3.708,5.051,7.852
		c0,4.226-0.625,7.852-5.16,7.852c-2.933,0-3.693-0.6-4.508-1.554l-0.462,1.472l-2.227-0.191V16.259z M131.909,29.701
		c0-3.081-0.326-5.126-2.96-5.126c-2.987,0-3.286,2.072-3.286,5.126c0,3.054,0.271,5.044,3.286,5.044
		C131.528,34.745,131.909,32.809,131.909,29.701"/>
	<path fill="#382490" d="M138.453,16.995h3.069v3.299h-3.069V16.995z M138.453,21.985h3.042v15.241h-3.042V21.985z"/>
	<path fill="#382490" d="M144.944,32.645c0-4.362,2.499-5.589,7.794-5.589h0.598c-0.054-1.745-0.516-2.59-2.471-2.59
		c-1.63,0-2.906,0.382-3.775,0.818l-1.249-2.481c1.222-0.654,2.987-1.118,5.35-1.118c4.074,0,5.105,1.581,5.105,5.317v6.162
		c0,1.118,0.081,1.39,1.141,1.39v2.672c-0.299,0.027-0.598,0.027-0.869,0.027c-1.63,0-2.444-0.245-2.77-1.363
		c-0.869,1.118-2.2,1.5-4.264,1.5C145.948,37.39,144.944,35.536,144.944,32.645 M153.335,31.364V29.51h-0.57
		c-3.531,0-4.916,0.382-4.916,2.808c0,1.936,0.76,2.536,2.336,2.536C151.95,34.854,153.335,34.145,153.335,31.364"/>
	<path fill="#382490" d="M160.804,22.176l2.417-0.218l0.244,1.39c0.679-0.982,1.874-1.636,4.59-1.636c3.829,0,4.4,2.318,4.4,5.589
		v9.924h-3.042V28.01c0-2.236-0.244-3.381-2.471-3.381c-2.689,0-3.096,1.472-3.096,4.472v8.125h-3.042V22.176z"/>
	<path fill="#382490" d="M175.74,29.565c0-4.826,1.086-7.852,6.219-7.852c1.684,0,2.879,0.3,3.884,0.791l-1.331,2.645
		c-0.706-0.382-1.467-0.573-2.417-0.573c-2.58,0-3.259,1.636-3.259,5.071c0,3.435,0.625,5.126,3.313,5.126
		c1.114,0,1.955-0.327,2.716-0.682l1.168,2.345c-1.412,0.682-2.526,1.009-4.264,1.009C176.854,37.444,175.74,34.418,175.74,29.565"
		/>
	<path fill="#382490" d="M188.449,29.565c0-4.771,1.222-7.852,6.165-7.852c5.404,0,5.431,3.408,5.377,9.325h-8.609
		c0.136,2.508,0.76,3.763,3.313,3.763c1.982,0,2.987-0.463,3.883-0.9l1.168,2.345c-1.249,0.682-2.797,1.172-5.214,1.172
		C189.427,37.417,188.449,34.418,188.449,29.565 M191.382,28.365h5.812c-0.027-2.481-0.109-3.953-2.661-3.953
		C192.089,24.411,191.491,25.829,191.382,28.365"/>
</g>
</svg>
